<?xml version="1.0" standalone="no"?>
<!DOCTYPE svg PUBLIC "-//W3C//DTD SVG 20010904//EN"
 "http://www.w3.org/TR/2001/REC-SVG-20010904/DTD/svg10.dtd">
<svg version="1.0" xmlns="http://www.w3.org/2000/svg"
 width="100.000000pt" height="100.000000pt" viewBox="0 0 100.000000 100.000000"
 preserveAspectRatio="xMidYMid meet">

<g transform="translate(0.000000,100.000000) scale(0.100000,-0.100000)"
fill="#000000" stroke="none">
<path d="M340 915 c-85 -24 -168 -75 -204 -124 -28 -39 -31 -50 -31 -119 0
-72 3 -84 53 -187 60 -125 140 -265 151 -265 17 0 61 136 59 180 -1 25 2 53 6
63 6 13 5 16 -7 11 -23 -8 -32 16 -13 34 16 16 18 16 30 0 10 -13 15 -15 24
-6 18 18 14 28 -9 28 -14 0 -19 5 -17 18 2 9 12 17 23 17 11 0 19 -6 18 -12
-4 -20 15 -15 27 7 9 17 8 20 -10 20 -23 0 -26 22 -5 40 12 10 16 8 23 -9 l8
-22 18 20 c19 21 19 21 -2 21 -28 0 -34 13 -18 35 15 20 36 13 36 -13 1 -15 2
-15 15 2 19 25 19 37 1 30 -21 -8 -31 16 -13 33 17 18 37 10 37 -15 0 -13 2
-13 15 4 19 26 19 35 -2 32 -12 -2 -18 3 -18 17 0 11 8 21 18 23 10 2 17 -3
17 -12 0 -21 7 -20 37 4 56 44 128 12 128 -58 0 -47 -24 -78 -66 -87 -33 -7
-36 -15 -43 -127 -5 -90 -17 -118 -46 -111 -32 8 -77 -16 -93 -50 -8 -18 -32
-79 -53 -136 l-38 -104 27 -23 c40 -35 72 -39 119 -18 88 40 190 193 280 419
63 159 73 237 39 303 -25 50 -81 93 -160 123 -74 29 -278 37 -361 14z"/>
</g>
</svg>
